<svg id="icon-setting" xmlns="http://www.w3.org/2000/svg" xmlns:xlink="http://www.w3.org/1999/xlink" width="56" height="56" viewBox="0 0 56 56" fill="none"><g opacity="1"  transform="translate(0 0)"><path id="椭圆形" fill-rule="evenodd" style="fill:#EBEBEB" opacity="1" d="M28 0C12.54 0 0 12.54 0 28C0 43.46 12.54 56 28 56C43.46 56 56 43.46 56 28C56 12.54 43.46 0 28 0Z"></path><g opacity="1"  transform="translate(12 12)"><g opacity="1"  transform="translate(2 2)"><path id="路径" fill-rule="evenodd" style="fill:#5E1115" opacity="1" d="M0 14C0 21.73 6.27 28 14 28C17.63 28 20.94 26.62 23.42 24.35L26.25 25.99L27.69 23.48L24.54 21.66L23 20.67L22.94 20.74L22.92 20.73L22.83 20.9C20.78 23.52 17.58 25.2 14 25.2C7.81 25.2 2.8 20.19 2.8 14C2.8 7.81 7.81 2.8 14 2.8C20.19 2.8 25.2 7.81 25.2 14C25.2 15.55 24.88 17.03 24.31 18.37L26.77 19.76C27.56 18 28 16.05 28 14C28 6.27 21.73 0 14 0C6.27 0 0 6.27 0 14Z"></path><path id="路径" fill-rule="evenodd" style="fill:#BF9759" opacity="1" d="M5.64551 13.9952C5.64551 18.6152 9.38551 22.3552 14.0055 22.3552C16.7555 22.3552 19.2055 21.0152 20.7255 18.9652L18.4155 17.3852L18.4155 17.3752C17.4055 18.6952 15.8055 19.5552 14.0055 19.5552C10.9355 19.5552 8.44551 17.0652 8.44551 13.9952C8.44551 10.9352 10.9355 8.44516 14.0055 8.44516C15.1355 8.44516 16.1855 8.78516 17.0655 9.36516L18.6355 7.04516C17.3055 6.16516 15.7155 5.64516 14.0055 5.64516C9.38551 5.64516 5.64551 9.38516 5.64551 13.9952Z"></path><path id="路径" fill-rule="evenodd" style="fill:#5E1115" opacity="1" d="M10.8389 13.9987C10.8389 15.7487 12.2589 17.1587 13.9989 17.1587C15.0889 17.1587 16.0589 16.6087 16.6189 15.7687L14.9889 14.6287C14.7789 14.9587 14.4189 15.1787 13.9989 15.1787C13.3489 15.1787 12.8289 14.6487 12.8289 13.9987C12.8289 13.3487 13.3489 12.8287 13.9989 12.8287C14.2889 12.8287 14.5589 12.9287 14.7689 13.1087L15.8889 11.4687C15.3589 11.0687 14.7089 10.8387 13.9989 10.8387C12.2589 10.8387 10.8389 12.2587 10.8389 13.9987Z"></path></g><path d="M0 32L32 32L32 0L0 0L0 32Z"  ></path></g></g></svg>