<svg xmlns="http://www.w3.org/2000/svg" xmlns:xlink="http://www.w3.org/1999/xlink" width="56" height="56" viewBox="0 0 56 56" fill="none"><g opacity="1"  transform="translate(0 0)"><path id="椭圆形" fill-rule="evenodd" style="fill:#EBEBEB" opacity="1" d="M28 0C12.54 0 0 12.54 0 28C0 43.46 12.54 56 28 56C43.46 56 56 43.46 56 28C56 12.54 43.46 0 28 0Z"></path><g opacity="1"  transform="translate(12 12)"><path id="形状" fill-rule="evenodd" style="fill:#BF9759" opacity="1" d="M22.42 15.17C19.73 14.52 16.94 15.78 15.67 18.24C14.4 20.7 14.97 23.71 17.06 25.53C19.15 27.34 22.21 27.5 24.47 25.9L28.29 29.72L29.71 28.3L25.89 24.48C26.61 23.46 27 22.25 27 21.01C27 18.24 25.11 15.83 22.42 15.17ZM25 21.0054C25 22.0654 24.58 23.0854 23.83 23.8354C23.08 24.5854 22.06 25.0054 21 25.0054C18.79 25.0054 17 23.2154 17 21.0054C17 18.7954 18.79 17.0054 21 17.0054C23.21 17.0054 25 18.7954 25 21.0054Z"></path><path id="椭圆形" fill-rule="evenodd" style="fill:#5E1115" opacity="1" d="M11 7C10.45 7 10 7.45 10 8C10 8.55 10.45 9 11 9C11.55 9 12 8.55 12 8C12 7.45 11.55 7 11 7Z"></path><path id="椭圆形" fill-rule="evenodd" style="fill:#5E1115" opacity="1" d="M11 15C10.45 15 10 15.45 10 16C10 16.55 10.45 17 11 17C11.55 17 12 16.55 12 16C12 15.45 11.55 15 11 15Z"></path><path id="椭圆形" fill-rule="evenodd" style="fill:#5E1115" opacity="1" d="M11 23C10.45 23 10 23.45 10 24C10 24.55 10.45 25 11 25C11.55 25 12 24.55 12 24C12 23.45 11.55 23 11 23Z"></path><path id="形状" fill-rule="evenodd" style="fill:#5E1115" opacity="1" d="M8 3L7.85 3.01C6.82 3.08 6 3.95 6 5L6 27L6.01 27.15C6.08 28.18 6.95 29 8 29L13 29L13 27L8 27L8 21L13 21L13 19L8 19L8 13L26 13L26 5L25.99 4.85C25.92 3.82 25.05 3 24 3L8 3ZM8 11L8 5L24 5L24 11L8 11Z"></path><path d="M0 32L32 32L32 0L0 0L0 32Z"  ></path></g></g></svg>