<?xml version="1.0" encoding="UTF-8"?>
<svg width="20px" height="20px" viewBox="0 0 20 20" version="1.1" xmlns="http://www.w3.org/2000/svg" xmlns:xlink="http://www.w3.org/1999/xlink">
    <title>编组 4</title>
    <defs>
        <linearGradient x1="50%" y1="0%" x2="50%" y2="100%" id="linearGradient-1">
            <stop stop-color="#FEF5E6" offset="0%"></stop>
            <stop stop-color="#E5CEB1" offset="100%"></stop>
        </linearGradient>
        <polygon id="path-2" points="0 0 9.87776815 0 9.87776815 13.9784946 0 13.9784946"></polygon>
        <linearGradient x1="50%" y1="0%" x2="50%" y2="100%" id="linearGradient-4">
            <stop stop-color="#640000" offset="0%"></stop>
            <stop stop-color="#BC8A48" offset="100%"></stop>
        </linearGradient>
        <linearGradient x1="8.65534819%" y1="-23.3512559%" x2="50%" y2="81.2878371%" id="linearGradient-5">
            <stop stop-color="#640000" offset="0%"></stop>
            <stop stop-color="#BC8A48" offset="100%"></stop>
        </linearGradient>
    </defs>
    <g id="页面-1" stroke="none" stroke-width="1" fill="none" fill-rule="evenodd">
        <g id="编组-2备份">
            <rect id="矩形" fill="url(#linearGradient-1)" x="0" y="0" width="20" height="20" rx="3"></rect>
            <g id="彩色" transform="translate(3.3333, 2.5806)">
                <rect id="矩形" x="0.107526882" y="0.860215054" width="13.2258065" height="13.2258065"></rect>
                <g id="编组">
                    <path d="M2.67558735,9.97448832 C2.68236141,10.0248675 2.66399618,10.0800091 2.62502923,10.1624652 C2.04947094,11.3798299 1.47406319,12.5972586 0.898913492,13.8147942 C0.883386924,13.8476826 0.871215126,13.8821301 0.847968283,13.939151 C0.906397212,13.908569 0.9411492,13.8915055 0.974847445,13.8726266 C1.36118374,13.6562034 1.74764907,13.4400151 2.13351226,13.2228017 C2.9799468,12.7462391 3.82700499,12.2707444 4.67120303,11.7903378 C4.74664237,11.7474333 4.81408187,11.7315657 4.88012355,11.7483943 C4.05659176,11.2318958 3.31983242,10.63371 2.67558735,9.97448832" id="Fill-1" fill="#640000"></path>
                    <g transform="translate(3.8857, 0)">
                        <mask id="mask-3" fill="white">
                            <use xlink:href="#path-2"></use>
                        </mask>
                        <g id="Clip-4"></g>
                        <path d="M9.64757046,9.52320562 C9.30360333,8.32334227 8.75275712,7.22062709 8.01743548,6.20864909 C7.4745445,5.46157403 6.9276329,4.71629406 6.27483069,4.05886631 C5.34499282,3.12241 4.3352156,2.27927664 3.2310936,1.5489557 C2.28186216,0.9210827 1.26073261,0.43876101 0.195225746,0.0436718035 C0.134658463,0.0212118967 0.0682860099,0.0141811552 0.00462263606,-8.548014e-06 C0.00307459049,0.00896686668 0.00154804556,0.0179422814 0,0.0269176961 C0.0533645707,0.0433298829 0.108449192,0.0556390231 0.159878706,0.0767312476 C1.57122325,0.656286596 2.84894135,1.4496064 3.99808568,2.44741608 C4.84200702,3.18017321 5.58967002,4.00447957 6.29381575,4.86697418 C7.30262544,6.10269645 8.14252616,7.43879378 8.68578265,8.94527439 C8.89169421,9.51621762 9.0273632,10.0972902 8.95402455,10.7090502 C8.87376268,11.3785093 8.38466629,11.7970842 7.70851439,11.7772955 C7.34601372,11.766696 7.00095006,11.6755742 6.67063584,11.53263 C5.84294748,11.1744469 5.0757619,10.7153971 4.36888559,10.1572118 C4.3216702,10.1199425 4.26912265,10.0893192 4.196042,10.0401254 C4.21236098,10.0871181 4.21728463,10.1036371 4.22373482,10.1195792 C4.67417308,11.2295602 5.12484784,12.3394129 5.57468408,13.4496076 C5.61983541,13.561031 5.66507274,13.6723902 5.71018107,13.7838136 C5.7452056,13.8702981 5.80394533,13.9091702 5.89657005,13.917355 C6.0849371,13.9339381 6.27265912,13.9577016 6.46066066,13.9784946 L7.1484444,13.9784946 C7.18680153,13.9718699 7.22492215,13.9620824 7.26355879,13.9590479 C7.71090096,13.9239369 8.14082761,13.819929 8.53654676,13.6080237 C8.62171076,13.5624414 8.70210163,13.5136109 8.77836438,13.462045 C9.39994767,13.0417178 9.7303694,12.4262394 9.835959,11.6639916 C9.93679697,10.936 9.84795636,10.2222622 9.64757046,9.52320562" id="Fill-3" fill="url(#linearGradient-4)" mask="url(#mask-3)"></path>
                    </g>
                    <g transform="translate(0, 6.5015)" fill="url(#linearGradient-5)" id="Fill-5">
                        <path d="M9.23712338,7.27600831 C9.20229235,7.25812159 9.16743983,7.23989295 9.13125426,7.22497666 C8.72841841,7.05908108 8.34613715,6.85961318 7.98056189,6.63411657 C7.55534388,6.37184213 7.15278753,6.07426439 6.7679692,5.75142727 C5.87227434,5.00003547 5.13678069,4.10849898 4.52171209,3.11712169 C4.18174408,2.56915125 3.84128156,2.02120219 3.61268683,1.41670801 C3.45323814,0.995141327 3.32027823,0.563552101 3.18091112,0.134676869 C3.14928369,0.0373577292 3.09725216,-0.00038175255 2.99518866,0 C2.11506025,0.00346485375 1.23493185,0.00391362448 0.354781942,0.00583692763 C0.289441519,0.00596514784 0.224079595,0.00607199801 0.158717672,0.00622158826 C0.111158272,0.00632843843 0.0636203726,0.016457835 0,0.023766387 C0.0269187923,0.0774479149 0.0424207486,0.116298638 0.0643943953,0.151089055 C0.630484557,1.04702777 1.25806653,1.89486254 1.9673079,2.6790146 C2.18912993,2.9524442 2.42529288,3.21779593 2.67540975,3.47395853 C3.3195257,4.13360877 4.05613739,4.73218345 4.87950412,5.24899638 C4.91891478,5.27374288 4.95851895,5.29829705 4.99833812,5.32265889 C5.03202961,5.34330234 5.0658286,5.36362525 5.0996491,5.38386267 C6.31202678,6.19932184 7.5967541,6.8673705 9.01110873,7.27055895 C9.08567292,7.29182213 9.16335471,7.30229345 9.25466789,7.32088538 C9.24217603,7.28801827 9.24157401,7.27827353 9.23712338,7.27600831"></path>
                    </g>
                    <path d="M4.54600164,6.46544826 C5.35559937,6.46587592 6.1651756,6.46551241 6.97477333,6.46484954 C7.14994127,6.46469986 7.159429,6.45095066 7.11810038,6.27978057 C6.86883782,5.2474357 6.619941,4.21498391 6.37039876,3.18270319 C6.32313224,2.98709245 6.27349917,2.79203767 6.22496333,2.59672629 C6.21446444,2.5963414 6.20398706,2.5959565 6.19348817,2.59557161 C6.18154784,2.61652685 6.16812303,2.63677645 6.15790382,2.65854424 C5.58700522,3.87516692 5.01630023,5.09189651 4.44587494,6.30873301 C4.3853127,6.43788571 4.40224431,6.46536273 4.54600164,6.46544826" id="Fill-7" fill="#640000"></path>
                </g>
            </g>
        </g>
    </g>
</svg>